<svg width="146" height="146" viewBox="0 0 146 146" fill="none" xmlns="http://www.w3.org/2000/svg">
<g clip-path="url(#clip0_24_16)">
<rect width="146" height="146" fill="#211C32"/>
<path d="M130.67 146H146L130.67 130.67V146Z" fill="#7C5EEF"/>
<path d="M130.67 146V130.67H107.861L123.191 146H130.67Z" fill="#7C5EEF"/>
<path d="M107.861 130.67H38.1387L22.8087 146H123.191L107.861 130.67Z" fill="#7C5EEF"/>
<path d="M15.33 130.67V146H22.8087L38.1387 130.67H15.33Z" fill="#7C5EEF"/>
<path d="M0 146H15.33V130.67L0 146Z" fill="#7C5EEF"/>
<path d="M73 95.8087L61.5957 84.4043L15.33 130.67H38.1387L73 95.8087Z" fill="#4C2EBC"/>
<path d="M0 22.8087V146L15.33 130.67V38.1387L0 22.8087Z" fill="#7C5EEF"/>
<path d="M0 0V22.8087L15.33 38.1387V15.33L0 0Z" fill="#7C5EEF"/>
<path d="M73 73L15.33 15.33V38.1387L61.5957 84.4043L73 73Z" fill="#4C2EBC"/>
<path d="M61.5957 84.4043L73 95.8087L84.4043 84.4043L73 73L61.5957 84.4043Z" fill="#7C5EEF"/>
<path d="M130.67 15.33L73 73L84.4043 84.4043L130.67 38.1387V15.33Z" fill="#7C5EEF"/>
<path d="M146 0L130.67 15.33V38.1387L146 22.8087V0Z" fill="#7C5EEF"/>
<path d="M130.67 130.67L146 146V22.8087L130.67 38.1387V130.67Z" fill="#4C2EBC"/>
<path d="M0 0L15.33 15.33L73 73L130.67 15.33L146 0H0Z" fill="#9E85FB"/>
<path d="M130.67 130.67V38.1387L84.4043 84.4043L73 95.8087L38.1387 130.67H107.861H130.67Z" fill="#9E85FB"/>
<path d="M15.33 38.1387V130.67L61.5957 84.4043L15.33 38.1387Z" fill="#9E85FB"/>
</g>
<defs>
<clipPath id="clip0_24_16">
<rect width="146" height="146" fill="white"/>
</clipPath>
</defs>
</svg>
