<svg width="146" height="146" viewBox="0 0 146 146" fill="none" xmlns="http://www.w3.org/2000/svg">
<g clip-path="url(#clip0_25_2)">
<rect width="146" height="146" rx="73" fill="#211C32"/>
<path d="M69.2646 115.065L71.6649 114.443C71.9612 114.384 72.3464 114.295 72.8205 114.176C72.702 113.998 72.6131 113.761 72.5538 113.465C72.2575 112.813 71.8723 111.983 71.3982 110.976C70.3314 108.783 69.235 106.205 68.1089 103.242C67.0422 100.278 66.568 97.6114 66.6866 95.2408C66.7458 93.2851 66.6273 91.3589 66.331 89.4625C66.0346 88.2771 65.768 87.2104 65.5309 86.2621C61.7379 89.7588 58.0931 93.0776 54.5964 96.2187C50.922 99.4783 48.1365 101.997 46.24 103.775C43.2767 106.264 39.9579 108.101 36.2834 109.287C32.6682 110.472 29.4975 111.213 26.7713 111.509L22.5042 111.954L29.2605 107.775C33.6461 104.931 38.8615 101.316 44.9065 96.9299C51.0109 92.5443 56.73 87.8919 62.0639 82.9729C67.22 78.0539 72.376 72.3051 77.5321 65.7267C77.1173 65.7267 76.7321 65.7267 76.3765 65.7267C70.1536 65.3118 65.9161 64.245 63.664 62.5263C63.1306 62.1115 62.3306 61.6077 61.2638 61.0151C59.5451 60.1261 57.9746 59.0593 56.5522 57.8147C55.1891 56.5109 54.8039 55.0292 55.3965 53.3698C55.515 53.2513 55.5743 53.2513 55.5743 53.3698C55.6336 53.4291 55.6632 53.4883 55.6632 53.5476C55.7817 53.8439 56.0484 54.2588 56.4633 54.7922C56.8781 55.2663 57.5301 55.7108 58.419 56.1257C59.3673 56.4812 60.7304 56.5701 62.5084 56.3923C66.1235 55.9775 68.4645 55.6219 69.5313 55.3256C70.0054 55.2663 70.3907 55.207 70.687 55.1478C70.9833 55.0885 71.1907 55.0885 71.3093 55.1478C71.6649 55.207 72.6131 55.5034 74.154 56.0368C75.7542 56.5701 77.3247 57.2813 78.8656 58.1703C80.288 58.8815 81.177 59.6223 81.5326 60.3928C85.2663 55.4737 88.4962 50.9696 91.2225 46.8802C94.7784 41.4871 96.6156 38.4053 96.7341 37.6348C96.7341 36.9237 96.3785 36.4792 95.6674 36.3014C95.0154 36.1236 93.7709 36.0347 91.9336 36.0347C91.4595 35.9754 91.015 35.9458 90.6002 35.9458C88.5851 35.8272 86.7479 35.4124 85.0885 34.7012C83.5476 33.9308 82.4215 33.3085 81.7104 32.8343C82.1845 33.0121 82.9253 33.0714 83.9328 33.0121C85.3552 32.8936 86.985 32.7454 88.8222 32.5676C90.6594 32.3306 92.3189 32.0639 93.8005 31.7676C95.2821 31.4712 96.2304 31.1749 96.6452 30.8786C97.0008 30.5823 97.3861 30.197 97.8009 29.7229C98.2158 29.1895 98.6899 28.7154 99.2233 28.3005C99.8159 27.8264 100.409 27.619 101.001 27.6783C101.594 27.7375 102.246 28.2413 102.957 29.1895C103.846 30.4934 104.705 31.3823 105.535 31.8565C106.424 32.3306 107.313 32.6565 108.202 32.8343C109.091 33.1307 109.891 33.4863 110.602 33.9011C111.847 34.6716 112.499 35.4717 112.558 36.3014C112.617 37.1311 111.965 37.5459 110.602 37.5459C109.773 37.6052 108.587 38.672 107.046 40.7463C105.565 42.7613 103.787 45.2208 101.712 48.1248C99.3418 51.6215 96.8527 55.0885 94.245 58.5259C90.9261 62.4967 85.1774 68.2158 76.9988 75.6832C73.7984 78.7058 70.687 81.6098 67.6644 84.3953C68.3756 84.8101 69.1461 85.2842 69.9758 85.8176C71.0426 85.5806 72.5242 85.2546 74.4207 84.8398C78.273 84.0693 82.5993 83.1507 87.3998 82.0839C92.2596 80.9579 96.6452 79.98 100.557 79.1503C104.468 78.2613 106.869 77.6983 107.758 77.4612C108.824 77.1649 109.802 76.8389 110.691 76.4833C111.639 76.1277 112.38 75.8018 112.914 75.5054L113.714 75.061L115.136 75.861C116.084 76.4537 117.27 77.1945 118.692 78.0835C120.114 78.9132 121.566 79.7429 123.048 80.5726C124.53 81.4024 125.833 82.1135 126.959 82.7062C129.212 83.8322 130.664 84.7212 131.316 85.3731C132.027 85.9658 131.612 86.3214 130.071 86.4399C128.886 86.677 127.789 88.1586 126.782 90.8848C125.774 93.5518 124.885 96.3669 124.115 99.3301C123.404 101.76 122.781 103.597 122.248 104.842C121.952 105.731 121.715 106.412 121.537 106.886C121.418 107.301 121.359 107.627 121.359 107.864C121.359 108.101 121.329 108.338 121.27 108.576C121.211 108.753 121.092 108.99 120.914 109.287C120.796 109.465 120.648 109.702 120.47 109.998C121.359 110.354 121.981 110.768 122.337 111.242C122.692 111.717 122.663 112.131 122.248 112.487C121.892 112.783 120.944 112.961 119.403 113.02C117.922 113.08 115.699 113.02 112.736 112.843C110.01 112.724 106.187 112.991 101.268 113.643C96.4082 114.295 91.4891 114.947 86.5109 115.599C83.0142 116.191 79.962 116.665 77.3543 117.021C74.8059 117.317 73.1465 117.436 72.376 117.376C71.7834 117.258 71.3093 117.139 70.9537 117.021C70.5981 116.843 70.3018 116.665 70.0647 116.487C69.8276 116.31 69.6498 116.162 69.5313 116.043C69.4128 115.865 69.3239 115.717 69.2646 115.599C69.2646 115.421 69.2646 115.273 69.2646 115.154V115.065ZM78.7767 23.5C78.836 23.2037 78.836 23.2333 78.7767 23.5889C78.7174 23.6482 78.6878 23.7371 78.6878 23.8556C78.7471 23.7371 78.7767 23.6186 78.7767 23.5ZM115.403 108.664C115.403 108.605 115.403 108.576 115.403 108.576C115.225 107.924 115.166 106.62 115.225 104.664C115.284 102.649 115.432 100.367 115.669 97.8189C115.906 94.3815 116.055 91.2404 116.114 88.3957C116.232 85.4917 115.995 83.6544 115.403 82.884C114.81 82.4099 112.943 82.3506 109.802 82.7062C106.72 83.0618 103.164 83.6544 99.1344 84.4842C95.1043 85.2546 91.4002 86.0547 88.0221 86.8844C84.644 87.6549 82.4215 88.1882 81.3548 88.4846C80.4065 88.7216 79.2508 88.8994 77.8877 89.018C76.7617 89.0772 75.6356 89.1069 74.5096 89.1069C75.1023 89.6402 75.4282 90.0847 75.4875 90.4403C75.4282 91.3293 75.4282 92.9887 75.4875 95.4186C75.606 97.8485 75.7838 100.338 76.0209 102.886C76.2579 105.434 76.5246 107.361 76.821 108.664C77.1765 109.85 77.2358 111.124 76.9988 112.487C76.9988 112.724 76.9988 112.932 76.9988 113.109C77.1173 113.05 77.2062 113.02 77.2654 113.02C79.4583 112.487 81.5918 111.954 83.6661 111.42C85.7997 110.828 87.4295 110.383 88.5555 110.087C90.9261 109.376 94.0376 108.783 97.8898 108.309C101.742 107.835 105.476 107.687 109.091 107.864C111.521 108.042 113.625 108.309 115.403 108.664ZM81.7104 32.8343C81.414 32.6565 81.3251 32.6269 81.4437 32.7454C81.5029 32.8047 81.5918 32.8343 81.7104 32.8343ZM78.6878 23.8556C78.5693 24.152 78.4508 24.5965 78.3322 25.1891C77.9174 26.73 77.384 28.6858 76.7321 31.0564C76.0801 33.3677 75.4282 35.5606 74.7763 37.6348C74.1244 39.7091 73.5317 41.1611 72.9983 41.9909C72.3464 42.8798 71.7834 43.8281 71.3093 44.8356C70.5981 46.1987 69.8276 47.4433 68.9979 48.5693C68.1682 49.6954 67.1311 50.4065 65.8865 50.7029C65.2938 50.9399 64.7604 51.0881 64.2863 51.1474C63.0417 51.4437 62.0935 51.6215 61.4416 51.6807C60.8489 51.6807 60.4341 51.3844 60.197 50.7918C60.0785 50.4954 59.9007 49.9917 59.6636 49.2805C59.4858 48.51 59.2784 47.7396 59.0413 46.9691C58.8635 46.1987 58.7154 45.5764 58.5968 45.1023L58.3301 44.2133L58.5968 44.3911C58.7154 44.5096 58.8932 44.6578 59.1302 44.8356C59.4266 45.0134 59.7525 45.1319 60.1081 45.1912C60.523 45.2504 60.9378 45.2208 61.3527 45.1023C61.8268 44.9245 62.3009 44.6282 62.775 44.2133C63.7233 43.3243 65.4124 41.3686 67.8422 38.346C70.3314 35.3235 72.702 32.3306 74.9541 29.3673C76.9691 26.7004 78.2137 24.8631 78.6878 23.8556Z" fill="#9E85FB"/>
</g>
<defs>
<clipPath id="clip0_25_2">
<rect width="146" height="146" rx="73" fill="white"/>
</clipPath>
</defs>
</svg>
